<svg xmlns="http://www.w3.org/2000/svg" width="520" height="457">
        <g transform="translate(1.0, -78.0)">             <defs><pattern id="pattern-group-Google-Play-Store-0" patternUnits="userSpaceOnUse" width="6" height="6" patternTransform="rotate(45)"><rect width="6" height="6" fill="#1c90f8" opacity="0.8" /><line x1="0" y1="0" x2="0" y2="6" stroke="white" stroke-width="1.5" opacity="0.6" /></pattern><pattern id="pattern-group-iOS-App-Store-1" patternUnits="userSpaceOnUse" width="6" height="6" patternTransform="rotate(45)"><rect width="6" height="6" fill="#e3d883" opacity="0.8" /><line x1="0" y1="0" x2="0" y2="6" stroke="white" stroke-width="1.5" opacity="0.6" /></pattern></defs><text x="165" y="90" text-anchor="middle" style="font-family: Arial; font-size: 16px; font-weight: 500; fill: rgb(65, 65, 65);">Google Play Store</text><text x="435" y="90" text-anchor="middle" style="font-family: Arial; font-size: 16px; font-weight: 500; fill: rgb(65, 65, 65);">iOS App Store</text><g transform="translate(30,100)"><text x="270" y="56.41509433962263" dy="0.35em" text-anchor="middle" style="fill: rgb(65, 65, 65); font-family: Arial; font-size: 16px; font-weight: 500;">2009</text><text x="270" y="143.2075471698113" dy="0.35em" text-anchor="middle" style="fill: rgb(65, 65, 65); font-family: Arial; font-size: 16px; font-weight: 500;">2010</text><text x="270" y="229.99999999999997" dy="0.35em" text-anchor="middle" style="fill: rgb(65, 65, 65); font-family: Arial; font-size: 16px; font-weight: 500;">2011</text><text x="270" y="316.7924528301887" dy="0.35em" text-anchor="middle" style="fill: rgb(65, 65, 65); font-family: Arial; font-size: 16px; font-weight: 500;">2012</text><text x="270" y="403.58490566037733" dy="0.35em" text-anchor="middle" style="fill: rgb(65, 65, 65); font-family: Arial; font-size: 16px; font-weight: 500;">2013</text><path d="M 230,26.037735849056588 L 230,86.79245283018867 A 12.545454545454561,30.377358490566035 0 0 1 230,26.037735849056588 Z" fill="url(#pattern-group-Google-Play-Store-0)" /><text class="label" x="207.45454545454544" y="56.41509433962263" dy="0.35em" text-anchor="end" style="fill: rgb(65, 65, 65); font-family: Arial; font-size: 20px; font-weight: 400; pointer-events: none;">3</text><path d="M 230,112.83018867924527 L 230,173.58490566037733 A 20.909090909090907,30.377358490566035 0 0 1 230,112.83018867924527 Z" fill="url(#pattern-group-Google-Play-Store-0)" /><text class="label" x="199.0909090909091" y="143.2075471698113" dy="0.35em" text-anchor="end" style="fill: rgb(65, 65, 65); font-family: Arial; font-size: 20px; font-weight: 400; pointer-events: none;">5</text><path d="M 230,199.62264150943395 L 230,260.377358490566 L 218.55917667238418,260.377358490566 A 30.377358490566035,30.377358490566035 0 0 1 218.55917667238418,199.62264150943395 Z" fill="url(#pattern-group-Google-Play-Store-0)" /><text class="label" x="178.18181818181816" y="229.99999999999997" dy="0.35em" text-anchor="end" style="fill: rgb(65, 65, 65); font-family: Arial; font-size: 20px; font-weight: 400; pointer-events: none;">10</text><path d="M 230,286.41509433962267 L 230,347.1698113207547 L 155.83190394511146,347.1698113207547 A 30.377358490566035,30.377358490566035 0 0 1 155.83190394511146,286.41509433962267 Z" fill="url(#pattern-group-Google-Play-Store-0)" /><text class="label" x="115.45454545454544" y="316.7924528301887" dy="0.35em" text-anchor="end" style="fill: rgb(65, 65, 65); font-family: Arial; font-size: 20px; font-weight: 400; pointer-events: none;">25</text><path d="M 230,373.2075471698113 L 230,433.9622641509433 L 30.377358490566035,433.9622641509433 A 30.377358490566035,30.377358490566035 0 0 1 30.377358490566035,373.2075471698113 Z" fill="url(#pattern-group-Google-Play-Store-0)" /><text class="label" x="-10" y="403.58490566037733" dy="0.35em" text-anchor="end" style="fill: rgb(65, 65, 65); font-family: Arial; font-size: 20px; font-weight: 400; pointer-events: none;">55</text><path d="M 310,26.037735849056588 A 16.727272727272727,30.377358490566035 0 0 1 310,86.79245283018867 Z" fill="url(#pattern-group-iOS-App-Store-1)" /><text class="label" x="336.72727272727275" y="56.41509433962263" dy="0.35em" text-anchor="start" style="fill: rgb(65, 65, 65); font-family: Arial; font-size: 20px; font-weight: 400; pointer-events: none;">4</text><path d="M 310,112.83018867924527 H 321.44082332761576 A 30.377358490566035,30.377358490566035 0 0 1 321.44082332761576,173.58490566037733 H 310 Z" fill="url(#pattern-group-iOS-App-Store-1)" /><text class="label" x="361.8181818181818" y="143.2075471698113" dy="0.35em" text-anchor="start" style="fill: rgb(65, 65, 65); font-family: Arial; font-size: 20px; font-weight: 400; pointer-events: none;">10</text><path d="M 310,199.62264150943395 H 363.2590051457976 A 30.377358490566035,30.377358490566035 0 0 1 363.2590051457976,260.377358490566 H 310 Z" fill="url(#pattern-group-iOS-App-Store-1)" /><text class="label" x="403.6363636363636" y="229.99999999999997" dy="0.35em" text-anchor="start" style="fill: rgb(65, 65, 65); font-family: Arial; font-size: 20px; font-weight: 400; pointer-events: none;">20</text><path d="M 310,286.41509433962267 H 405.0771869639794 A 30.377358490566035,30.377358490566035 0 0 1 405.0771869639794,347.1698113207547 H 310 Z" fill="url(#pattern-group-iOS-App-Store-1)" /><text class="label" x="445.45454545454544" y="316.7924528301887" dy="0.35em" text-anchor="start" style="fill: rgb(65, 65, 65); font-family: Arial; font-size: 20px; font-weight: 400; pointer-events: none;">30</text><path d="M 310,373.2075471698113 H 425.9862778730703 A 30.377358490566035,30.377358490566035 0 0 1 425.9862778730703,433.9622641509433 H 310 Z" fill="url(#pattern-group-iOS-App-Store-1)" /><text class="label" x="466.3636363636364" y="403.58490566037733" dy="0.35em" text-anchor="start" style="fill: rgb(65, 65, 65); font-family: Arial; font-size: 20px; font-weight: 400; pointer-events: none;">35</text></g>         </g></svg>