<svg xmlns="http://www.w3.org/2000/svg" width="537" height="476">
        <g transform="translate(-5.0, -112.0)">             <defs><pattern id="pattern-sketch-left" width="8" height="8" patternUnits="userSpaceOnUse" patternTransform="rotate(45)"><rect width="8" height="8" fill="#4269d0" /><path d="M -1,2 l 10,0 M -1,5 l 10,0 M -1,8 l 10,0" stroke="#FFFFFF" stroke-width="0.8" /></pattern><pattern id="pattern-sketch-right" width="8" height="8" patternUnits="userSpaceOnUse" patternTransform="rotate(-45)"><rect width="8" height="8" fill="#ff725c" /><path d="M -1,2 l 10,0 M -1,5 l 10,0 M -1,8 l 10,0" stroke="#FFFFFF" stroke-width="0.8" /></pattern><pattern id="pattern-label-sketch" width="8" height="8" patternUnits="userSpaceOnUse" patternTransform="rotate(45)"><rect width="8" height="8" fill="#FFFFFF" /><path d="M -1,2 l 10,0 M -1,5 l 10,0 M -1,8 l 10,0" stroke="#CCCCCC" stroke-width="0.6" /></pattern></defs><g class="new-legend" transform="translate(60, 560)"><rect x="0" y="0" width="240" height="15" fill="#1c90f8" stroke="#555" stroke-width="0.5" /><text x="3" y="23" dominant-baseline="hanging" style="font-family: &quot;Comic Sans MS&quot;, cursive; font-size: 12px; font-weight: 400; fill: rgb(65, 65, 65);">Google Play Store</text><rect x="240" y="0" width="240" height="15" fill="#e3d883" stroke="#555" stroke-width="0.5" /><text x="243" y="23" dominant-baseline="hanging" style="font-family: &quot;Comic Sans MS&quot;, cursive; font-size: 12px; font-weight: 400; fill: rgb(65, 65, 65);">iOS App Store</text></g><g transform="translate(64.296875, 100)"><g class="dimension-label-group"><rect x="-59.04017639160156" y="32.98669549530627" width="49.04017639160156" height="28.928569793701172" fill="url(#pattern-label-sketch)" stroke="#AAAAAA" stroke-width="0.5" /><text x="-15" y="47.45098039215686" text-anchor="end" dominant-baseline="middle" style="font-family: &quot;Comic Sans MS&quot;, cursive; font-size: 16px; font-weight: 500; fill: rgb(65, 65, 65);">2009</text></g><rect class="bar group-0" x="0" y="12.509803921568626" width="27.110688920454542" height="31.058823529411764" fill="url(#pattern-sketch-left)" stroke="none" stroke-width="0" /><g class="value-label-group"><text style="font-family: Arial;" /></g></g>         </g></svg>