<svg xmlns="http://www.w3.org/2000/svg" width="513" height="525">
        <g transform="translate(-37.845, -20.0)">             <g transform="translate(300, 300)"><path d="M0,-253.825L0,-52Z" stroke="#e0e0e0" stroke-width="1" fill="none" /><text x="1.570946297776246e-14" y="-256.555" text-anchor="middle" dominant-baseline="middle" fill="#888" style="font-size: 12px;">0</text><path d="M205.349,-149.195L42.069,-30.565Z" stroke="#e0e0e0" stroke-width="1" fill="none" /><text x="207.55735499186466" y="-150.79924540189546" text-anchor="middle" dominant-baseline="middle" fill="#888" style="font-size: 12px;">11</text><path d="M241.402,78.436L49.455,16.069Z" stroke="#e0e0e0" stroke-width="1" fill="none" /><text x="243.99830453810313" y="79.27985499186462" text-anchor="middle" dominant-baseline="middle" fill="#888" style="font-size: 12px;">22</text><path d="M78.436,241.402L16.069,49.455Z" stroke="#e0e0e0" stroke-width="1" fill="none" /><text x="79.27985499186464" y="243.99830453810313" text-anchor="middle" dominant-baseline="middle" fill="#888" style="font-size: 12px;">33</text><path d="M-149.195,205.349L-30.565,42.069Z" stroke="#e0e0e0" stroke-width="1" fill="none" /><text x="-150.79924540189543" y="207.55735499186466" text-anchor="middle" dominant-baseline="middle" fill="#888" style="font-size: 12px;">44</text><path d="M-253.825,0L-52,0Z" stroke="#e0e0e0" stroke-width="1" fill="none" /><text x="-256.555" y="3.141892595552492e-14" text-anchor="middle" dominant-baseline="middle" fill="#888" style="font-size: 12px;">55</text><path d="M0,-65.65A65.65,65.65,0,0,1,16.689,-63.493L13.219,-50.292A52,52,0,0,0,0,-52Z" fill="#446cd5" opacity="0.85" /><text x="-19.999999999999996" y="-58.825" text-anchor="end" dominant-baseline="middle" fill="#222b44" style="font-size: 12px; font-weight: bold;">2009</text><path d="M0,-85.15A85.15,85.15,0,0,1,28.615,-80.198L24.028,-67.342A71.5,71.5,0,0,0,0,-71.5Z" fill="#e0ddd4" opacity="0.85" /><path d="M0,-104.65A104.65,104.65,0,0,1,43.473,-95.193L37.803,-82.777A91,91,0,0,0,0,-91Z" fill="#446cd5" opacity="0.85" /><text x="-19.999999999999993" y="-97.825" text-anchor="end" dominant-baseline="middle" fill="#222b44" style="font-size: 12px; font-weight: bold;">2010</text><path d="M0,-124.15A124.15,124.15,0,0,1,93.826,-81.301L83.51,-72.362A110.5,110.5,0,0,0,0,-110.5Z" fill="#e0ddd4" opacity="0.85" /><path d="M0,-143.65A143.65,143.65,0,0,1,108.563,-94.071L98.247,-85.132A130,130,0,0,0,0,-130Z" fill="#446cd5" opacity="0.85" /><text x="-19.999999999999993" y="-136.825" text-anchor="end" dominant-baseline="middle" fill="#222b44" style="font-size: 12px; font-weight: bold;">2011</text><path d="M0,-163.15A163.15,163.15,0,0,1,161.489,23.219L147.978,21.276A149.5,149.5,0,0,0,0,-149.5Z" fill="#e0ddd4" opacity="0.85" /><path d="M0,-182.65A182.65,182.65,0,0,1,153.655,98.748L142.172,91.368A169,169,0,0,0,0,-169Z" fill="#446cd5" opacity="0.85" /><text x="-19.99999999999999" y="-175.825" text-anchor="end" dominant-baseline="middle" fill="#222b44" style="font-size: 12px; font-weight: bold;">2012</text><path d="M0,-202.15A202.15,202.15,0,0,1,109.291,170.059L101.911,158.576A188.5,188.5,0,0,0,0,-188.5Z" fill="#e0ddd4" opacity="0.85" /><path d="M0,-221.65A221.65,221.65,0,1,1,-221.65,0L-208,0A208,208,0,1,0,0,-208Z" fill="#446cd5" opacity="0.85" /><text x="-19.999999999999986" y="-214.825" text-anchor="end" dominant-baseline="middle" fill="#222b44" style="font-size: 12px; font-weight: bold;">2013</text><path d="M0,-241.15A241.15,241.15,0,0,1,34.319,238.695L32.377,225.184A227.5,227.5,0,0,0,0,-227.5Z" fill="#e0ddd4" opacity="0.85" /></g><g class="legend" transform="translate(450, 20)"><g transform="translate(0, 0)"><rect width="15" height="15" fill="#446cd5" opacity="0.85" /><text x="20" y="12" font-size="10px">Google Play Store</text></g><g transform="translate(0, 20)"><rect width="15" height="15" fill="#e0ddd4" opacity="0.85" /><text x="20" y="12" font-size="10px">iOS App Store</text></g></g>         </g></svg>