<svg xmlns="http://www.w3.org/2000/svg" width="482" height="421">
        <g transform="translate(-59.15008574041079, -9.199999999999989)">             <defs /><g class="legend" transform="translate(30, 10)"><g class="legend-item" transform="translate(147.9580078125, 0)"><rect width="15" height="15" fill="#f9f9fa" /><text x="20" y="12" style="font-family: Arial; font-size: 12px; font-weight: 400; fill: rgb(163, 142, 142); dominant-baseline: middle;">Google Play Store</text></g><g class="legend-item" transform="translate(280.6728515625, 0)"><rect width="15" height="15" fill="#b03144" /><text x="20" y="12" style="font-family: Arial; font-size: 12px; font-weight: 400; fill: rgb(163, 142, 142); dominant-baseline: middle;">iOS App Store</text></g></g><g transform="translate(120, 136.375)"><path d="M0,-59.85A59.85,59.85,0,0,1,25.968,53.923L0,0Z" fill="#f9f9fa" stroke="#333333" stroke-width="1" style="filter: none;" /><path d="M25.968,53.923A59.85,59.85,0,1,1,0,-59.85L0,0Z" fill="#b03144" stroke="#333333" stroke-width="1" style="filter: none;" /><text class="pie-label" x="45.3828943120639" y="-10.358349475666436" text-anchor="middle" style="font-family: Arial; font-size: 12px; font-weight: 400; fill: rgb(163, 142, 142); pointer-events: none; dominant-baseline: middle;">3</text><text class="pie-label" x="-45.3828943120639" y="10.358349475666442" text-anchor="middle" style="font-family: Arial; font-size: 12px; font-weight: 400; fill: rgb(163, 142, 142); pointer-events: none; dominant-baseline: middle;">4</text><text x="0" y="-76.5" text-anchor="middle" style="font-family: Arial; font-size: 16px; font-weight: 500; fill: rgb(163, 142, 142);">2009</text></g><g transform="translate(300, 136.375)"><path d="M0,-59.85A59.85,59.85,0,0,1,51.832,29.925L0,0Z" fill="#f9f9fa" stroke="#333333" stroke-width="1" style="filter: none;" /><path d="M51.832,29.925A59.85,59.85,0,1,1,0,-59.85L0,0Z" fill="#b03144" stroke="#333333" stroke-width="1" style="filter: none;" /><text class="pie-label" x="40.313482546165616" y="-23.275000000000002" text-anchor="middle" style="font-family: Arial; font-size: 12px; font-weight: 400; fill: rgb(163, 142, 142); pointer-events: none; dominant-baseline: middle;">5</text><text class="pie-label" x="-40.31348254616561" y="23.27500000000002" text-anchor="middle" style="font-family: Arial; font-size: 12px; font-weight: 400; fill: rgb(163, 142, 142); pointer-events: none; dominant-baseline: middle;">10</text><text x="0" y="-76.5" text-anchor="middle" style="font-family: Arial; font-size: 16px; font-weight: 500; fill: rgb(163, 142, 142);">2010</text></g><g transform="translate(480, 136.375)"><path d="M0,-59.85A59.85,59.85,0,0,1,51.832,29.925L0,0Z" fill="#f9f9fa" stroke="#333333" stroke-width="1" style="filter: none;" /><path d="M51.832,29.925A59.85,59.85,0,1,1,0,-59.85L0,0Z" fill="#b03144" stroke="#333333" stroke-width="1" style="filter: none;" /><text class="pie-label" x="40.313482546165616" y="-23.275000000000002" text-anchor="middle" style="font-family: Arial; font-size: 12px; font-weight: 400; fill: rgb(163, 142, 142); pointer-events: none; dominant-baseline: middle;">10</text><text class="pie-label" x="-40.31348254616561" y="23.27500000000002" text-anchor="middle" style="font-family: Arial; font-size: 12px; font-weight: 400; fill: rgb(163, 142, 142); pointer-events: none; dominant-baseline: middle;">20</text><text x="0" y="-76.5" text-anchor="middle" style="font-family: Arial; font-size: 16px; font-weight: 500; fill: rgb(163, 142, 142);">2011</text></g><g transform="translate(210, 368.875)"><path d="M0,-59.85A59.85,59.85,0,0,1,16.862,57.426L0,0Z" fill="#f9f9fa" stroke="#333333" stroke-width="1" style="filter: none;" /><path d="M16.862,57.426A59.85,59.85,0,1,1,0,-59.85L0,0Z" fill="#b03144" stroke="#333333" stroke-width="1" style="filter: none;" /><text class="pie-label" x="46.076188119557415" y="-6.6247557216214314" text-anchor="middle" style="font-family: Arial; font-size: 12px; font-weight: 400; fill: rgb(163, 142, 142); pointer-events: none; dominant-baseline: middle;">25</text><text class="pie-label" x="-46.076188119557415" y="6.624755721621426" text-anchor="middle" style="font-family: Arial; font-size: 12px; font-weight: 400; fill: rgb(163, 142, 142); pointer-events: none; dominant-baseline: middle;">30</text><text x="0" y="-76.5" text-anchor="middle" style="font-family: Arial; font-size: 16px; font-weight: 500; fill: rgb(163, 142, 142);">2012</text></g><g transform="translate(390, 368.875)"><path d="M0,-59.85A59.85,59.85,0,1,1,-38.471,45.848L0,0Z" fill="#f9f9fa" stroke="#333333" stroke-width="1" style="filter: none;" /><path d="M-38.471,45.848A59.85,59.85,0,0,1,0,-59.85L0,0Z" fill="#b03144" stroke="#333333" stroke-width="1" style="filter: none;" /><text class="pie-label" x="43.74269149758403" y="15.92103767180988" text-anchor="middle" style="font-family: Arial; font-size: 12px; font-weight: 400; fill: rgb(163, 142, 142); pointer-events: none; dominant-baseline: middle;">55</text><text class="pie-label" x="-43.74269149758405" y="-15.921037671809854" text-anchor="middle" style="font-family: Arial; font-size: 12px; font-weight: 400; fill: rgb(163, 142, 142); pointer-events: none; dominant-baseline: middle;">35</text><text x="0" y="-76.5" text-anchor="middle" style="font-family: Arial; font-size: 16px; font-weight: 500; fill: rgb(163, 142, 142);">2013</text></g>         </g></svg>